HIERARCHY
ROOT Hips
{
 OFFSET 0.000000 0.000000 0.000000
 CHANNELS 6 Xposition Yposition Zposition Yrotation Xrotation Zrotation
 JOINT Chest
 {
  OFFSET 0.000000 9.585900 0.002600
  CHANNELS 3 Yrotation Xrotation Zrotation
  JOINT Chest2
  {
   OFFSET 0.000000 9.601200 -0.005300
   CHANNELS 3 Yrotation Xrotation Zrotation
   JOINT Chest3
   {
    OFFSET 0.000000 9.561800 0.000000
    CHANNELS 3 Yrotation Xrotation Zrotation
    JOINT Chest4
    {
     OFFSET 0.000000 9.552100 0.000000
     CHANNELS 3 Yrotation Xrotation Zrotation
     JOINT Neck
     {
      OFFSET 0.000000 14.453000 0.000000
      CHANNELS 3 Yrotation Xrotation Zrotation
      JOINT Head
      {
       OFFSET 0.000000 8.936500 -0.011300
       CHANNELS 3 Yrotation Xrotation Zrotation
       End Site
       {
        OFFSET 0.000000 17.073600 -0.006000
       }
      }
     }
     JOINT RightCollar
     {
      OFFSET -2.921100 9.558500 0.000000
      CHANNELS 3 Yrotation Xrotation Zrotation
      JOINT RightShoulder
      {
       OFFSET -13.519700 0.000000 0.000000
       CHANNELS 3 Yrotation Xrotation Zrotation
       JOINT RightElbow
       {
        OFFSET 0.000000 -29.696600 0.000000
        CHANNELS 3 Yrotation Xrotation Zrotation
        JOINT RightWrist
        {
         OFFSET 0.000000 -24.004700 0.000000
         CHANNELS 3 Yrotation Xrotation Zrotation
         End Site
         {
          OFFSET 0.000000 -17.728500 0.000000
         }
        }
       }
      }
     }
     JOINT LeftCollar
     {
      OFFSET 2.921100 9.558500 0.000000
      CHANNELS 3 Yrotation Xrotation Zrotation
      JOINT LeftShoulder
      {
       OFFSET 13.519700 0.000000 0.000000
       CHANNELS 3 Yrotation Xrotation Zrotation
       JOINT LeftElbow
       {
        OFFSET 0.000000 -29.696600 0.000000
        CHANNELS 3 Yrotation Xrotation Zrotation
        JOINT LeftWrist
        {
         OFFSET 0.000000 -24.004700 0.000000
         CHANNELS 3 Yrotation Xrotation Zrotation
         End Site
         {
          OFFSET 0.000000 -17.728500 0.000000
         }
        }
       }
      }
     }
    }
   }
  }
 }
 JOINT RightHip
 {
  OFFSET -7.771700 -0.012900 -0.001300
  CHANNELS 3 Yrotation Xrotation Zrotation
  JOINT RightKnee
  {
   OFFSET 0.000000 -40.869800 0.001200
   CHANNELS 3 Yrotation Xrotation Zrotation
   JOINT RightAnkle
   {
    OFFSET 0.000000 -39.717900 0.002100
    CHANNELS 3 Yrotation Xrotation Zrotation
    JOINT RightToe
    {
     OFFSET 0.000000 -4.965400 11.033500
     CHANNELS 3 Yrotation Xrotation Zrotation
     End Site
     {
      OFFSET 0.000000 -1.423100 5.872300
     }
    }
   }
  }
 }
 JOINT LeftHip
 {
  OFFSET 7.771700 -0.012900 -0.001300
  CHANNELS 3 Yrotation Xrotation Zrotation
  JOINT LeftKnee
  {
   OFFSET 0.000000 -40.869800 0.001200
   CHANNELS 3 Yrotation Xrotation Zrotation
   JOINT LeftAnkle
   {
    OFFSET 0.000000 -39.717900 0.002100
    CHANNELS 3 Yrotation Xrotation Zrotation
    JOINT LeftToe
    {
     OFFSET 0.000000 -4.965400 11.033500
     CHANNELS 3 Yrotation Xrotation Zrotation
     End Site
     {
      OFFSET 0.000000 -1.423100 5.872300
     }
    }
   }
  }
 }
}
MOTION
Frames: 8
Frame Time: 0.008333
-77.062084 57.429064 5.057215 162.107664 -9.535267 1.448381 2.019134 9.156487 1.545497 0.109129 0.536879 0.042727 0.189353 0.930212 0.074752 1.833941 8.701106 0.826344 1.710554 20.596066 -1.630553 3.560494 2.520411 -3.448669 2.593230 8.979441 -2.836291 -0.452906 -17.825808 -13.514188 136.841681 -83.070688 -127.042395 -4.944051 -6.538982 -29.986156 -6.946793 7.469329 1.519231 5.182523 -19.689891 7.287158 133.165824 -80.872202 -159.638000 -1.483228 -1.095971 4.942184 -12.015233 -63.117023 5.209724 -35.861456 72.364707 -37.470211 -3.663733 -7.095007 -0.386016 -0.760013 0.796994 -0.217016 1.922726 -64.891917 13.291028 43.141089 64.179401 36.286333 -18.099826 -10.111155 2.735936 0.241295 -0.869493 0.163604
-77.078701 57.428178 5.048229 162.131909 -9.558959 1.463384 2.002187 9.175963 1.530299 0.105662 0.538911 0.042550 0.196503 0.933458 0.076734 1.824240 8.707707 0.828087 1.696865 20.585100 -1.631842 3.514756 2.493059 -3.454617 2.589788 8.965346 -2.853968 -0.495839 -17.819722 -13.484601 136.598286 -83.074896 -126.967984 -4.967915 -6.535338 -30.016960 -7.101339 7.457281 1.480293 5.121611 -19.762968 7.443910 132.161313 -81.047331 -158.623140 -1.430674 -1.073156 5.143561 -11.929522 -63.102075 5.134290 -35.875059 72.362040 -37.548796 -3.663412 -7.094200 -0.308788 -0.802636 0.799513 -0.246001 1.987544 -64.874599 13.222609 43.131563 64.192818 36.263129 -18.127011 -10.101162 2.758564 0.247220 -0.884092 0.153727
-77.090478 57.427440 5.039122 162.168791 -9.598640 1.446213 1.970296 9.213220 1.543838 0.109071 0.538995 0.043288 0.200724 0.936861 0.077998 1.817420 8.714702 0.830860 1.677938 20.578220 -1.634346 3.467505 2.459021 -3.462121 2.582048 8.953807 -2.869430 -0.533570 -17.818143 -13.457094 136.367852 -83.085321 -126.907551 -4.989105 -6.528175 -30.074446 -7.237221 7.435636 1.452058 5.010022 -19.838880 7.610392 130.902693 -81.228292 -157.357667 -1.387465 -1.047858 5.318915 -11.807881 -63.068792 5.061785 -36.009037 72.340476 -37.713781 -3.724555 -7.075245 -0.228265 -0.786778 0.785052 -0.264055 1.969834 -64.842049 13.230477 43.114618 64.208379 36.233806 -18.142281 -10.101460 2.784976 0.246681 -0.884672 0.152859
-77.101498 57.426114 5.033006 162.195390 -9.628401 1.418785 1.963497 9.239284 1.572707 0.108771 0.541121 0.043768 0.200642 0.938637 0.079361 1.810102 8.733320 0.836822 1.638327 20.561022 -1.637049 3.430772 2.421382 -3.474525 2.570220 8.935382 -2.884891 -0.617569 -17.829982 -13.414814 136.112900 -83.091581 -126.783688 -5.006765 -6.520961 -30.155063 -7.390957 7.394431 1.419265 4.878169 -19.919482 7.802670 129.366366 -81.418357 -155.824197 -1.348490 -1.022984 5.478872 -11.694814 -63.043124 5.011157 -36.127456 72.320229 -37.858844 -3.775801 -7.057071 -0.167026 -0.784933 0.778547 -0.250492 1.987961 -64.820235 13.240762 43.047237 64.225935 36.163844 -18.187890 -10.101786 2.797803 0.291693 -0.876784 0.169888
-77.119027 57.424249 5.028078 162.227398 -9.645753 1.423781 1.946305 9.252082 1.567199 0.108705 0.543640 0.044545 0.204273 0.938498 0.082012 1.800848 8.755733 0.846454 1.613893 20.539515 -1.646385 3.391769 2.394307 -3.475592 2.557265 8.918845 -2.904070 -0.780243 -17.858524 -13.346873 135.845627 -83.085159 -126.580766 -5.019166 -6.510812 -30.262440 -7.562132 7.349804 1.378107 4.722731 -20.012279 8.027973 127.497858 -81.619864 -153.966646 -1.311638 -0.997133 5.623102 -11.555645 -63.036494 4.906907 -36.200299 72.307907 -37.967203 -3.807723 -7.054017 -0.127374 -0.797130 0.788305 -0.220424 2.026814 -64.808242 13.194065 43.026085 64.228589 36.128568 -18.224064 -10.078620 2.792250 0.287418 -0.885055 0.178589
-77.139111 57.421528 5.026566 162.281686 -9.645286 1.432320 1.912910 9.235942 1.557525 0.100854 0.552585 0.043242 0.205191 0.936673 0.082659 1.813849 8.783024 0.863206 1.576264 20.518804 -1.661855 3.378683 2.385163 -3.475285 2.528675 8.906001 -2.923242 -0.897781 -17.889083 -13.308925 135.437601 -83.075992 -126.286891 -5.029199 -6.491823 -30.405054 -7.762984 7.302312 1.331918 4.533884 -20.120045 8.289759 125.276958 -81.832049 -151.760135 -1.275410 -0.965931 5.743646 -11.430047 -63.051038 4.793860 -36.274402 72.296496 -38.074284 -3.862887 -7.047925 -0.057719 -0.798767 0.789775 -0.236005 2.069103 -64.815061 13.123217 43.019895 64.221321 36.080847 -18.229167 -10.041779 2.840188 0.261229 -0.896604 0.166953
-77.149612 57.419187 5.023025 162.303416 -9.678906 1.394699 1.904414 9.261096 1.596217 0.108816 0.547797 0.045535 0.204757 0.936229 0.081535 1.807600 8.792811 0.868620 1.555528 20.510887 -1.659201 3.332977 2.355985 -3.465587 2.522404 8.918132 -2.931690 -0.987474 -17.922756 -13.289217 134.861465 -83.055245 -125.858873 -5.039475 -6.460123 -30.581096 -7.952326 7.271473 1.292755 4.305192 -20.243005 8.585846 122.768135 -82.057995 -149.264981 -1.239363 -0.930076 5.845488 -11.357677 -63.020012 4.770441 -36.397298 72.277716 -38.187610 -3.918835 -7.038527 -0.093888 -0.755684 0.772799 -0.212631 2.038020 -64.791958 13.164683 42.987857 64.228394 36.056525 -18.246520 -10.041932 2.841120 0.282426 -0.885216 0.173263
-77.158942 57.416550 5.020123 162.325719 -9.716249 1.348538 1.906151 9.281909 1.643995 0.108553 0.548967 0.045816 0.201149 0.934059 0.084521 1.797051 8.800743 0.875813 1.542326 20.503609 -1.657932 3.277444 2.286855 -3.405927 2.519212 8.931532 -2.942990 -1.050613 -17.948191 -13.281109 134.101915 -83.018788 -125.275761 -5.045797 -6.412256 -30.776849 -8.146165 7.240950 1.254154 4.034483 -20.386691 8.908770 120.109429 -82.297335 -146.608196 -1.214736 -0.885829 5.937898 -11.300852 -62.983441 4.765675 -36.520562 72.257344 -38.303017 -3.984779 -7.023245 -0.094329 -0.713664 0.765011 -0.174797 1.993938 -64.767061 13.220010 42.959088 64.234469 36.039409 -18.258028 -10.045923 2.839609 0.307740 -0.869372 0.181747
